<mxfile host="app.diagrams.net" agent="Mozilla/5.0 (Windows NT 10.0; Win64; x64) AppleWebKit/537.36 (KHTML, like Gecko) Chrome/129.0.0.0 Safari/537.36" version="24.7.17">
  <diagram name="Страница — 1" id="35fQ_zyNvFhBD2qUZ-KV">
    <mxGraphModel dx="1366" dy="735" grid="1" gridSize="10" guides="1" tooltips="1" connect="1" arrows="1" fold="1" page="1" pageScale="1" pageWidth="827" pageHeight="1169" math="0" shadow="0">
      <root>
        <mxCell id="0" />
        <mxCell id="1" parent="0" />
        <mxCell id="6lx5HCdfcQxR4byMjE_l-5" value="" style="edgeStyle=orthogonalEdgeStyle;rounded=0;orthogonalLoop=1;jettySize=auto;html=1;" edge="1" parent="1" source="6lx5HCdfcQxR4byMjE_l-1" target="6lx5HCdfcQxR4byMjE_l-4">
          <mxGeometry relative="1" as="geometry" />
        </mxCell>
        <mxCell id="6lx5HCdfcQxR4byMjE_l-1" value="Star" style="ellipse;whiteSpace=wrap;html=1;fillColor=#d5e8d4;strokeColor=#82b366;" vertex="1" parent="1">
          <mxGeometry width="120" height="80" as="geometry" />
        </mxCell>
        <mxCell id="6lx5HCdfcQxR4byMjE_l-7" value="" style="edgeStyle=orthogonalEdgeStyle;rounded=0;orthogonalLoop=1;jettySize=auto;html=1;" edge="1" parent="1" source="6lx5HCdfcQxR4byMjE_l-4" target="6lx5HCdfcQxR4byMjE_l-6">
          <mxGeometry relative="1" as="geometry" />
        </mxCell>
        <mxCell id="6lx5HCdfcQxR4byMjE_l-4" value="float a=1000&lt;br&gt;float b=0.0001" style="whiteSpace=wrap;html=1;" vertex="1" parent="1">
          <mxGeometry y="90" width="120" height="60" as="geometry" />
        </mxCell>
        <mxCell id="6lx5HCdfcQxR4byMjE_l-9" value="" style="edgeStyle=orthogonalEdgeStyle;rounded=0;orthogonalLoop=1;jettySize=auto;html=1;" edge="1" parent="1" source="6lx5HCdfcQxR4byMjE_l-6" target="6lx5HCdfcQxR4byMjE_l-8">
          <mxGeometry relative="1" as="geometry" />
        </mxCell>
        <mxCell id="6lx5HCdfcQxR4byMjE_l-6" value="float firstAct =&lt;br&gt;(a-b)^2-a^2-2ab" style="whiteSpace=wrap;html=1;" vertex="1" parent="1">
          <mxGeometry y="180" width="120" height="60" as="geometry" />
        </mxCell>
        <mxCell id="6lx5HCdfcQxR4byMjE_l-11" value="" style="edgeStyle=orthogonalEdgeStyle;rounded=0;orthogonalLoop=1;jettySize=auto;html=1;" edge="1" parent="1" source="6lx5HCdfcQxR4byMjE_l-8" target="6lx5HCdfcQxR4byMjE_l-10">
          <mxGeometry relative="1" as="geometry" />
        </mxCell>
        <mxCell id="6lx5HCdfcQxR4byMjE_l-8" value="float secondAct =&lt;br&gt;b^2" style="whiteSpace=wrap;html=1;" vertex="1" parent="1">
          <mxGeometry y="270" width="120" height="60" as="geometry" />
        </mxCell>
        <mxCell id="6lx5HCdfcQxR4byMjE_l-15" value="" style="edgeStyle=orthogonalEdgeStyle;rounded=0;orthogonalLoop=1;jettySize=auto;html=1;" edge="1" parent="1" source="6lx5HCdfcQxR4byMjE_l-10" target="6lx5HCdfcQxR4byMjE_l-14">
          <mxGeometry relative="1" as="geometry" />
        </mxCell>
        <mxCell id="6lx5HCdfcQxR4byMjE_l-10" value="float thirdAct =&amp;nbsp;&lt;br&gt;firstAct / secondAct" style="whiteSpace=wrap;html=1;" vertex="1" parent="1">
          <mxGeometry y="360" width="120" height="60" as="geometry" />
        </mxCell>
        <mxCell id="6lx5HCdfcQxR4byMjE_l-16" style="edgeStyle=orthogonalEdgeStyle;rounded=0;orthogonalLoop=1;jettySize=auto;html=1;exitX=1;exitY=0.5;exitDx=0;exitDy=0;entryX=0;entryY=0.5;entryDx=0;entryDy=0;" edge="1" parent="1" source="6lx5HCdfcQxR4byMjE_l-14" target="6lx5HCdfcQxR4byMjE_l-17">
          <mxGeometry relative="1" as="geometry">
            <mxPoint x="200" y="40" as="targetPoint" />
            <Array as="points">
              <mxPoint x="160" y="480" />
              <mxPoint x="160" y="30" />
            </Array>
          </mxGeometry>
        </mxCell>
        <mxCell id="6lx5HCdfcQxR4byMjE_l-14" value="Result: thirdAct" style="shape=parallelogram;perimeter=parallelogramPerimeter;whiteSpace=wrap;html=1;fixedSize=1;" vertex="1" parent="1">
          <mxGeometry y="450" width="120" height="60" as="geometry" />
        </mxCell>
        <mxCell id="6lx5HCdfcQxR4byMjE_l-19" value="" style="edgeStyle=orthogonalEdgeStyle;rounded=0;orthogonalLoop=1;jettySize=auto;html=1;" edge="1" parent="1" source="6lx5HCdfcQxR4byMjE_l-17" target="6lx5HCdfcQxR4byMjE_l-18">
          <mxGeometry relative="1" as="geometry" />
        </mxCell>
        <mxCell id="6lx5HCdfcQxR4byMjE_l-17" value="double a1 = 1000&lt;br&gt;double b1 = 0.0001" style="rounded=0;whiteSpace=wrap;html=1;" vertex="1" parent="1">
          <mxGeometry x="190" width="120" height="60" as="geometry" />
        </mxCell>
        <mxCell id="6lx5HCdfcQxR4byMjE_l-21" value="" style="edgeStyle=orthogonalEdgeStyle;rounded=0;orthogonalLoop=1;jettySize=auto;html=1;" edge="1" parent="1" source="6lx5HCdfcQxR4byMjE_l-18" target="6lx5HCdfcQxR4byMjE_l-20">
          <mxGeometry relative="1" as="geometry" />
        </mxCell>
        <mxCell id="6lx5HCdfcQxR4byMjE_l-18" value="double first_act =&lt;div&gt;(a1-b1)^2-a1^2-2a1b1&lt;br&gt;&lt;/div&gt;" style="whiteSpace=wrap;html=1;rounded=0;" vertex="1" parent="1">
          <mxGeometry x="190" y="90" width="120" height="60" as="geometry" />
        </mxCell>
        <mxCell id="6lx5HCdfcQxR4byMjE_l-23" value="" style="edgeStyle=orthogonalEdgeStyle;rounded=0;orthogonalLoop=1;jettySize=auto;html=1;" edge="1" parent="1" source="6lx5HCdfcQxR4byMjE_l-20" target="6lx5HCdfcQxR4byMjE_l-22">
          <mxGeometry relative="1" as="geometry" />
        </mxCell>
        <mxCell id="6lx5HCdfcQxR4byMjE_l-20" value="double second_act =&amp;nbsp;&lt;br&gt;b1^2" style="whiteSpace=wrap;html=1;rounded=0;" vertex="1" parent="1">
          <mxGeometry x="190" y="180" width="120" height="60" as="geometry" />
        </mxCell>
        <mxCell id="6lx5HCdfcQxR4byMjE_l-25" value="" style="edgeStyle=orthogonalEdgeStyle;rounded=0;orthogonalLoop=1;jettySize=auto;html=1;" edge="1" parent="1" source="6lx5HCdfcQxR4byMjE_l-22" target="6lx5HCdfcQxR4byMjE_l-24">
          <mxGeometry relative="1" as="geometry" />
        </mxCell>
        <mxCell id="6lx5HCdfcQxR4byMjE_l-22" value="double third_act =&lt;br&gt;first_act / second_act" style="whiteSpace=wrap;html=1;rounded=0;" vertex="1" parent="1">
          <mxGeometry x="190" y="270" width="120" height="60" as="geometry" />
        </mxCell>
        <mxCell id="6lx5HCdfcQxR4byMjE_l-27" value="" style="edgeStyle=orthogonalEdgeStyle;rounded=0;orthogonalLoop=1;jettySize=auto;html=1;" edge="1" parent="1" source="6lx5HCdfcQxR4byMjE_l-24" target="6lx5HCdfcQxR4byMjE_l-26">
          <mxGeometry relative="1" as="geometry" />
        </mxCell>
        <mxCell id="6lx5HCdfcQxR4byMjE_l-24" value="Result: third_act" style="shape=parallelogram;perimeter=parallelogramPerimeter;whiteSpace=wrap;html=1;fixedSize=1;rounded=0;" vertex="1" parent="1">
          <mxGeometry x="190" y="360" width="120" height="60" as="geometry" />
        </mxCell>
        <mxCell id="6lx5HCdfcQxR4byMjE_l-26" value="End" style="ellipse;whiteSpace=wrap;html=1;fillColor=#f8cecc;strokeColor=#b85450;" vertex="1" parent="1">
          <mxGeometry x="190" y="440" width="120" height="80" as="geometry" />
        </mxCell>
      </root>
    </mxGraphModel>
  </diagram>
</mxfile>
